<svg width="874" height="384" viewBox="0 0 874 384" fill="none" xmlns="http://www.w3.org/2000/svg">
<path d="M0 1H122.022C130.298 1 137.01 7.70248 137.022 15.9782L137.175 122.029C137.187 130.302 143.895 137.003 152.168 137.007L275.007 137.066C283.289 137.07 290 143.785 290 152.066V177C290 185.284 296.716 192 305 192H437" stroke="#DCE0D3" stroke-dasharray="5 3"/>
<path d="M874 1H751.978C743.702 1 736.99 7.70248 736.978 15.9782L736.825 122.029C736.813 130.302 730.105 137.003 721.832 137.007L598.993 137.066C590.711 137.07 584 143.785 584 152.066V177C584 185.284 577.284 192 569 192H437" stroke="#DCE0D3" stroke-dasharray="5 3"/>
<path d="M0 383H122.022C130.298 383 137.01 376.298 137.022 368.022L137.175 261.971C137.187 253.698 143.906 246.997 152.179 246.993C198.05 246.971 229.13 246.956 274.996 246.934C283.278 246.93 290 240.215 290 231.934V207C290 198.716 296.716 192 305 192H437" stroke="#DCE0D3" stroke-dasharray="5 3"/>
<path d="M874 383H751.978C743.702 383 736.99 376.298 736.978 368.022L736.825 261.971C736.813 253.698 730.105 246.997 721.832 246.993L598.993 246.934C590.711 246.93 584 240.215 584 231.934V207C584 198.716 577.284 192 569 192H437" stroke="#DCE0D3" stroke-dasharray="5 3"/>
<path d="M64 192H437" stroke="#DCE0D3" stroke-dasharray="5 3"/>
<path d="M810 192H437" stroke="#DCE0D3" stroke-dasharray="5 3"/>
</svg>
